<?xml version="1.0" encoding="UTF-8" standalone="no"?>
<!DOCTYPE svg PUBLIC "-//W3C//DTD SVG 1.1//EN" "http://www.w3.org/Graphics/SVG/1.1/DTD/svg11.dtd">
<svg version="1.1" xmlns="http://www.w3.org/2000/svg" xmlns:xlink="http://www.w3.org/1999/xlink" preserveAspectRatio="xMidYMid meet" viewBox="0 0 640 640" width="640" height="640"><defs><path d="M210.48 306.44L302.36 222.14L372.4 304.13L280.52 388.42L210.48 306.44Z" id="a1CyOY4B8"></path><path d="M215.58 263.36L261.11 223.36L303.22 223.29L210.72 306.84L215.58 263.36Z" id="cPblwc7zZ"></path><path d="M366.06 347.24L324.25 385.72L279.95 386.67L372.4 303.05L366.06 347.24Z" id="aP7oY3K1r"></path><path d="M213.16 249.32L248.55 217.79L256.97 227.93L221.58 259.47L213.16 249.32Z" id="b3VN3cG9TT"></path><path d="M298.56 224.65L369.98 309.56L367.45 326.98L281.04 224.52L298.56 224.65Z" id="a8WQ8e5Zj"></path><path d="M281.11 224.76L368.38 327.76L366.59 344.92L261.09 223.19L281.11 224.76Z" id="hvj61bXfC"></path><path d="M278.85 386.17L209.91 306.04L213.18 290.73L296.79 385.16L278.85 386.17Z" id="h6911pwnGL"></path><path d="M332.14 260.03L348.74 245.47L357.08 255.69L340.48 270.25L332.14 260.03Z" id="b1zxy585LQ"></path><path d="M222.2 353.91L238.81 339.35L247.15 349.56L230.55 364.12L222.2 353.91Z" id="f44ElrQFBK"></path><path d="M284.77 168.2L372.75 92.76L512.17 267.38L424.2 342.81L284.77 168.2Z" id="c4ul1ULJ8"></path><path d="M71.75 345.68L159.73 270.25L303.22 449.95L215.24 525.39L71.75 345.68Z" id="ikfPpTiJW"></path><path d="M285.17 167.17L331.49 152.06L397.15 132.92L318.15 205.65L285.17 167.17Z" id="c1vsIY0Hlg"></path><path d="M319.04 207.27L366.57 193.77L434.03 177.03L354.62 249.27L319.04 207.27Z" id="agIhtXmyV"></path><path d="M354.3 250.4L402.04 237.72L469.76 222.14L389.21 293.01L354.3 250.4Z" id="d1cuEdZwga"></path><path d="M390.76 296.03L438.33 282.7L505.85 266.19L426.2 338.16L390.76 296.03Z" id="a8dfSRQum"></path><path d="M76.78 346.29L124.36 332.96L191.88 316.45L112.23 388.42L76.78 346.29Z" id="a6VjWwAZ"></path><path d="M114.01 391.67L161.59 378.34L229.1 361.83L149.46 433.8L114.01 391.67Z" id="aZVHDtq"></path><path d="M146 436.18L193.58 422.86L261.09 406.34L181.45 478.31L146 436.18Z" id="b3kutFHPJ7"></path><path d="M181.7 478.4L229.28 465.07L296.79 448.56L217.15 520.53L181.7 478.4Z" id="hird7lkND"></path><path d="M290.6 167.67L428.46 338.51L424.78 341.69L286.93 170.85L290.6 167.67Z" id="j1bqbX58gh"></path><path d="M306.9 149.93L447.19 323.8L443.52 326.98L303.22 153.11L306.9 149.93Z" id="d1w7fwYJZ"></path><path d="M329.85 129.26L470.15 303.13L466.47 306.31L326.18 132.44L329.85 129.26Z" id="d1EgkTg2Jk"></path><path d="M351.78 111.15L492.08 285.02L488.41 288.2L348.11 114.34L351.78 111.15Z" id="a5rV8zVepo"></path><path d="M371.88 93.2L512.17 267.06L508.5 270.25L368.21 96.38L371.88 93.2Z" id="aezweuOay"></path><path d="M158.3 272.66L301.09 449.62L297.41 452.8L154.62 275.84L158.3 272.66Z" id="a2MGmbJGi0"></path><path d="M139.66 293.01L279.95 466.87L276.28 470.06L135.99 296.19L139.66 293.01Z" id="aWqflED0F"></path><path d="M116.68 309.29L256.97 483.16L253.3 486.34L113 312.47L116.68 309.29Z" id="b7FJrpckkd"></path><path d="M77.69 345.27L217.99 519.14L212.18 524.17L71.88 350.31L77.69 345.27Z" id="c1z6XIQnC"></path><path d="M93.03 330.11L237.42 509.04L233.74 512.22L89.36 333.29L93.03 330.11Z" id="c3AZ2eC2xx"></path><path d="M298.57 452.57L215.59 527.09L213.16 524.17L296.14 449.65L298.57 452.57Z" id="ciHjPJXO8"></path><path d="M159.03 274.24L72.73 351.74L70.29 348.82L156.59 271.33L159.03 274.24Z" id="b1ZSbHC3K"></path><path d="M194.95 319.37L108.66 396.86L106.22 393.95L192.52 316.45L194.95 319.37Z" id="a1yNT8FiLe"></path><path d="M233.66 364.75L147.37 442.24L144.93 439.33L231.23 361.83L233.66 364.75Z" id="a3tFvLursr"></path><path d="M270.43 404.95L184.14 482.45L181.7 479.54L268 402.04L270.43 404.95Z" id="b24aWtMxo"></path><path d="M512.17 266.52L426.27 344.48L423.82 341.58L509.72 263.62L512.17 266.52Z" id="b1m7OdC8o8"></path><path d="M475.83 220.33L389.92 298.29L387.47 295.39L473.38 217.43L475.83 220.33Z" id="g1UDekZ7hf"></path><path d="M441.32 175.62L355.42 253.58L352.97 250.68L438.87 172.72L441.32 175.62Z" id="h44aGzZzs"></path><path d="M403.09 130.13L317.19 208.1L314.74 205.2L400.64 127.23L403.09 130.13Z" id="a1QkjXPwzB"></path><path d="M373.12 95.39L287.22 173.35L284.77 170.45L370.67 92.49L373.12 95.39Z" id="f1FehLkwE6"></path><path d="M281.61 263.62C281.61 271.53 275.28 277.96 267.48 277.96C259.68 277.96 253.35 271.53 253.35 263.62C253.35 255.7 259.68 249.27 267.48 249.27C275.28 249.27 281.61 255.7 281.61 263.62Z" id="bcno8wWh0"></path><path d="M226.07 327.22L317.86 242.83L320.33 245.71L228.54 330.11L226.07 327.22Z" id="b18GKhkWfl"></path><path d="M279.05 385.54L370.84 301.14L373.31 304.02L281.52 388.42L279.05 385.54Z" id="cayWug9Ob"></path><path d="M215.41 263.72L260.62 222.14L263.09 225.03L217.88 266.6L215.41 263.72Z" id="b2aSGrnxBM"></path><path d="M319.17 316.36C323.35 312.59 329.82 313.04 333.44 317.35C334.78 318.95 332.17 315.84 333.51 317.43C337.2 321.83 336.75 328.37 332.48 332.22C326.1 337.97 314.62 348.33 308.24 354.08C304.06 357.85 297.58 357.4 293.96 353.09C292.63 351.49 295.24 354.6 293.9 353.01C290.2 348.61 290.66 342.07 294.92 338.22C301.3 332.47 312.79 322.11 319.17 316.36Z" id="bIMmXvwvH"></path><path d="M332.14 326.98C332.14 331.62 328.22 335.39 323.39 335.39C318.57 335.39 314.65 331.62 314.65 326.98C314.65 322.34 318.57 318.57 323.39 318.57C328.22 318.57 332.14 322.34 332.14 326.98Z" id="a6u4WhHKMo"></path><path d="M277.62 264.09C277.62 269.89 272.74 274.6 266.74 274.6C260.74 274.6 255.87 269.89 255.87 264.09C255.87 258.29 260.74 253.58 266.74 253.58C272.74 253.58 277.62 258.29 277.62 264.09Z" id="a2mKCdF9d"></path></defs><g><g><g><use xlink:href="#a1CyOY4B8" opacity="1" fill="#ececec" fill-opacity="1"></use></g><g><use xlink:href="#cPblwc7zZ" opacity="1" fill="#eae9e9" fill-opacity="1"></use></g><g><use xlink:href="#aP7oY3K1r" opacity="1" fill="#e4e4e4" fill-opacity="1"></use></g><g><use xlink:href="#b3VN3cG9TT" opacity="1" fill="#efecec" fill-opacity="1"></use></g><g><use xlink:href="#a8WQ8e5Zj" opacity="1" fill="#d8d7d7" fill-opacity="1"></use></g><g><use xlink:href="#hvj61bXfC" opacity="1" fill="#e0dedd" fill-opacity="1"></use></g><g><use xlink:href="#h6911pwnGL" opacity="1" fill="#e0dedd" fill-opacity="1"></use></g><g><use xlink:href="#b1zxy585LQ" opacity="1" fill="#e9e9e9" fill-opacity="1"></use></g><g><use xlink:href="#f44ElrQFBK" opacity="1" fill="#e9e9e9" fill-opacity="1"></use></g><g><use xlink:href="#c4ul1ULJ8" opacity="1" fill="#818181" fill-opacity="1"></use></g><g><use xlink:href="#ikfPpTiJW" opacity="1" fill="#b4b4b4" fill-opacity="1"></use></g><g><use xlink:href="#c1vsIY0Hlg" opacity="1" fill="#969595" fill-opacity="1"></use></g><g><use xlink:href="#agIhtXmyV" opacity="1" fill="#a7a5a5" fill-opacity="1"></use></g><g><use xlink:href="#d1cuEdZwga" opacity="1" fill="#a2a2a2" fill-opacity="1"></use></g><g><use xlink:href="#a8dfSRQum" opacity="1" fill="#a4a2a2" fill-opacity="1"></use></g><g><use xlink:href="#a6VjWwAZ" opacity="1" fill="#a4a2a2" fill-opacity="1"></use></g><g><use xlink:href="#aZVHDtq" opacity="1" fill="#a4a2a2" fill-opacity="1"></use></g><g><use xlink:href="#b3kutFHPJ7" opacity="1" fill="#a4a2a2" fill-opacity="1"></use></g><g><use xlink:href="#hird7lkND" opacity="1" fill="#a4a2a2" fill-opacity="1"></use></g><g><use xlink:href="#j1bqbX58gh" opacity="1" fill="#b9b8b8" fill-opacity="1"></use></g><g><use xlink:href="#d1w7fwYJZ" opacity="1" fill="#b9b8b8" fill-opacity="1"></use></g><g><use xlink:href="#d1EgkTg2Jk" opacity="1" fill="#b9b8b8" fill-opacity="1"></use></g><g><use xlink:href="#a5rV8zVepo" opacity="1" fill="#b9b8b8" fill-opacity="1"></use></g><g><use xlink:href="#aezweuOay" opacity="1" fill="#b9b8b8" fill-opacity="1"></use></g><g><use xlink:href="#a2MGmbJGi0" opacity="1" fill="#eae6e6" fill-opacity="1"></use></g><g><use xlink:href="#aWqflED0F" opacity="1" fill="#eae6e6" fill-opacity="1"></use></g><g><use xlink:href="#b7FJrpckkd" opacity="1" fill="#eae6e6" fill-opacity="1"></use></g><g><use xlink:href="#c1z6XIQnC" opacity="1" fill="#eae6e6" fill-opacity="1"></use></g><g><use xlink:href="#c3AZ2eC2xx" opacity="1" fill="#eae6e6" fill-opacity="1"></use></g><g><use xlink:href="#ciHjPJXO8" opacity="1" fill="#eae6e6" fill-opacity="1"></use></g><g><use xlink:href="#b1ZSbHC3K" opacity="1" fill="#eae6e6" fill-opacity="1"></use></g><g><use xlink:href="#a1yNT8FiLe" opacity="1" fill="#eae6e6" fill-opacity="1"></use></g><g><use xlink:href="#a3tFvLursr" opacity="1" fill="#eae6e6" fill-opacity="1"></use></g><g><use xlink:href="#b24aWtMxo" opacity="1" fill="#eae6e6" fill-opacity="1"></use></g><g><use xlink:href="#b1m7OdC8o8" opacity="1" fill="#b9b8b8" fill-opacity="1"></use></g><g><use xlink:href="#g1UDekZ7hf" opacity="1" fill="#b9b8b8" fill-opacity="1"></use></g><g><use xlink:href="#h44aGzZzs" opacity="1" fill="#b9b8b8" fill-opacity="1"></use></g><g><use xlink:href="#a1QkjXPwzB" opacity="1" fill="#b9b8b8" fill-opacity="1"></use></g><g><use xlink:href="#f1FehLkwE6" opacity="1" fill="#b9b8b8" fill-opacity="1"></use></g><g><use xlink:href="#bcno8wWh0" opacity="1" fill="#cfcbcb" fill-opacity="1"></use></g><g><use xlink:href="#b18GKhkWfl" opacity="1" fill="#cfcbcb" fill-opacity="1"></use></g><g><use xlink:href="#cayWug9Ob" opacity="1" fill="#cfcbcb" fill-opacity="1"></use></g><g><use xlink:href="#b2aSGrnxBM" opacity="1" fill="#cfcbcb" fill-opacity="1"></use></g><g><use xlink:href="#bIMmXvwvH" opacity="1" fill="#cfcbcb" fill-opacity="1"></use></g><g><use xlink:href="#a6u4WhHKMo" opacity="1" fill="#e9e9e9" fill-opacity="1"></use></g><g><use xlink:href="#a2mKCdF9d" opacity="1" fill="#505050" fill-opacity="1"></use></g></g></g></svg>