<?xml version="1.0" encoding="UTF-8" standalone="no"?>
<!DOCTYPE svg PUBLIC "-//W3C//DTD SVG 1.1//EN" "http://www.w3.org/Graphics/SVG/1.1/DTD/svg11.dtd">
<svg version="1.1" xmlns="http://www.w3.org/2000/svg" xmlns:xlink="http://www.w3.org/1999/xlink" preserveAspectRatio="xMidYMid meet" viewBox="0 0 640 640" width="640" height="640"><defs><path d="M141.44 233.82C149.85 222.72 155.1 215.78 157.21 213C175.21 189.23 198.17 169.66 224.49 155.64C228.98 153.26 240.18 147.29 258.1 137.75C294.34 187.3 316.99 218.27 326.05 230.66C334.58 242.33 332.55 258.63 321.41 267.84C305.63 280.9 278.25 303.56 262.51 316.59C251.15 325.99 234.52 325.28 224 314.95C212.99 304.13 185.47 277.09 141.44 233.82Z" id="b2ElkrwgVX"></path><path d="M292.9 359.41L253.93 319.84L327.92 259.52C369.54 310.62 395.55 342.56 405.95 355.34C413.34 364.41 411.99 377.76 402.93 385.17C393.55 392.84 379.92 403.99 370.07 412.05C362.12 418.55 350.53 417.93 343.32 410.61C336.6 403.78 319.79 386.72 292.9 359.41Z" id="dNIYyfdKM"></path><path d="M371.63 410.35L404.74 382.91L419.8 401.08L386.69 428.52L371.63 410.35Z" id="bSOU2EeNW"></path><path d="M227.48 153.99C227.97 153.68 228.61 153.79 228.96 154.25C322.21 276.03 381.35 352.58 406.39 383.87C408.04 385.94 417.84 396.42 417.79 398.87C417.72 401.87 417.74 401.94 415.27 404C415 404.23 414.33 404.79 413.25 405.69C412.56 406.27 412.13 406.63 411.96 406.77C407.51 410.5 400.88 409.9 397.17 405.44C358.07 358.41 243.08 220.1 202.88 171.75C202.25 170.99 202.43 169.85 203.26 169.32C208.28 166.15 222.33 157.25 227.48 153.99Z" id="b4z7K4qmRZ"></path><path d="M228.51 153.66L257.8 138.83C294.65 186.81 317.68 216.8 326.89 228.8C335.15 239.55 333.98 254.8 324.17 264.16C323.39 264.9 321.45 266.76 318.33 269.73L228.51 153.66Z" id="b1BxIZHxEZ"></path><path d="M203.49 232.78C210.78 242.85 210.25 255.7 202.31 261.45C194.36 267.19 182 263.68 174.71 253.6C167.42 243.53 167.95 230.68 175.89 224.93C183.84 219.19 196.21 222.7 203.49 232.78Z" id="a1ESD0jYWz"></path><path d="M318.39 268.36L327.82 259.52C370.57 310.89 397.28 342.99 407.97 355.83C412.17 360.88 412.95 367.96 409.95 373.8C409.32 375.02 407.76 378.05 405.27 382.91L318.39 268.36Z" id="c1srXwMJKN"></path><path d="M268.74 327.78L289.24 308.77L311.4 332.67L290.9 351.68L268.74 327.78Z" id="d12FWEkPc3"></path><path d="M294.36 355.23L314.86 336.23L337.01 360.12L316.51 379.13L294.36 355.23Z" id="c1lhPwS9Po"></path><path d="M331.32 218.78L502.76 61.4L585.36 151.37L413.92 308.76L331.32 218.78Z" id="b3kIwvM5Pl"></path><path d="M47.08 483.2L212.34 319.33L296.17 403.87L130.91 567.74L47.08 483.2Z" id="a1NA1sO9g"></path><path d="M349.39 286.37L372.76 263.37L382.18 272.4L357.14 295.4L349.39 286.37Z" id="h1QpDODi2"></path><path d="M256.6 364.53L277.64 343.53L286.39 352.56L264.68 373.56L256.6 364.53Z" id="as0NMuWSq"></path><path d="M56.78 484.98L126.94 497.55L183.23 506.3L131.61 560.77L56.78 484.98Z" id="bfyc7BZGz"></path><path d="M115.8 426.21L184.23 440.62L239.09 450.9L190.81 501.8L115.8 426.21Z" id="aiTnuHZEP"></path><path d="M169.39 373.76L236.11 389.99L289.56 401.77L244.58 449.15L169.39 373.76Z" id="dZuheWviF"></path><path d="M575.4 153.51L506.4 135.69L450.92 122.72L506.5 72.3L575.4 153.51Z" id="b119JGJr2l"></path><path d="M512.12 207.67L444.98 188.14L391.04 173.75L443.03 126.64L512.12 207.67Z" id="bhRxis0iR"></path><path d="M454.73 255.93L389.42 234.72L337.01 218.93L385.44 175.08L454.73 255.93Z" id="c9l4BmEXO3"></path><path d="M267.69 174.52C264.75 177.09 260.02 176.5 257.14 173.19C254.25 169.89 254.3 165.12 257.24 162.56C260.18 159.99 264.91 160.58 267.79 163.89C270.68 167.19 270.63 171.96 267.69 174.52Z" id="casZ5CTO4i"></path><path d="M239.98 188.01C238.26 189.51 235.71 189.42 234.3 187.8C232.89 186.18 233.14 183.65 234.86 182.14C236.58 180.64 239.13 180.73 240.54 182.35C241.95 183.97 241.7 186.51 239.98 188.01Z" id="eMdpdeRhk"></path><path d="M356.49 285.11L544.37 110.13L546.67 112.6L358.8 287.58L356.49 285.11Z" id="bZeR96xD8"></path><path d="M90.27 526.66L278.14 351.68L280.45 354.15L92.57 529.13L90.27 526.66Z" id="b4iyb3gcFP"></path><path d="M112.25 421.41L193.61 503.87L190.83 506.61L109.48 424.14L112.25 421.41Z" id="a127X5lAsS"></path><path d="M166.25 366.62L247.61 449.08L244.83 451.82L163.48 369.36L166.25 366.62Z" id="b12xIVsIzy"></path><path d="M384.96 170.73L466.31 253.2L463.53 255.93L382.18 173.47L384.96 170.73Z" id="a3aLugsL8L"></path><path d="M443.96 119.08L525.31 201.54L522.53 204.28L441.18 121.82L443.96 119.08Z" id="bcBrWnPsn"></path><path d="M195.08 283.9L299.7 195.91L300.13 196.41L195.51 284.4L195.08 283.9Z" id="c3avQptAKL"></path><path d="M218.97 310.16L321.62 223.83L321.2 223.32L218.55 309.65L218.97 310.16Z" id="bclPinV16"></path><path d="M255.95 321.84L329.01 260.39L328.59 259.88L255.53 321.33L255.95 321.84Z" id="c2ikxxVmmM"></path><path d="M224.1 260.74L245.52 285.3L245.86 285L224.44 260.45L224.1 260.74Z" id="c8MLFqM6x4"></path><path d="M253.93 235.89L275.35 260.45L275.69 260.15L254.27 235.59L253.93 235.89Z" id="aAM1umBkx"></path><path d="M280.45 213.41L301.87 237.97L302.21 237.67L280.79 213.11L280.45 213.41Z" id="b4t83InUZ"></path><path d="M289.56 355.35L358.53 297.35L358.96 297.85L289.98 355.86L289.56 355.35Z" id="a1qpy5ALK9"></path><path d="M316.89 382.16L383.93 325.78L384.35 326.28L317.32 382.66L316.89 382.16Z" id="dtPkArHxv"></path><path d="M345.38 410.86L408.63 357.67L409.05 358.17L345.8 411.37L345.38 410.86Z" id="bwJ5helPD"></path><path d="M83.19 460.92L90.82 469.21L97.34 476.8L83.19 476.8L83.19 460.92Z" id="a2er5FoCh4"></path><path d="M191.39 449.15L199.02 457.45L205.54 465.04L191.39 465.04L191.39 449.15Z" id="g5jG9IKB0G"></path><path d="M205.54 343.73L213.17 352.02L219.69 359.62L205.54 359.62L205.54 343.73Z" id="awHc7Htst"></path><path d="M358.96 213.11L366.59 221.41L373.11 229L358.96 229L358.96 213.11Z" id="b4wCfXnVu"></path><path d="M441.18 169.19L448.81 177.48L455.33 185.08L441.18 185.08L441.18 169.19Z" id="b2SJqK4VTq"></path><path d="M548.81 137.75L556.44 146.04L562.96 153.64L548.81 153.64L548.81 137.75Z" id="c1SHc2SYx6"></path><path d="M488.7 110.13L501.89 123.81L513.16 136.35L488.7 136.35L488.7 110.13Z" id="a3yz5yEgfU"></path><path d="M458.34 204.28L471.53 217.97L482.8 230.5L458.34 230.5L458.34 204.28Z" id="a2AZEdKTKH"></path><path d="M399.79 256.62L412.98 270.31L424.24 282.84L399.79 282.84L399.79 256.62Z" id="b3bu6m1Swa"></path><path d="M230.54 346.51L243.74 360.2L255 372.73L230.54 372.73L230.54 346.51Z" id="h1BGcwwvJc"></path><path d="M169.15 390.32L182.34 404.01L193.61 416.54L169.15 416.54L169.15 390.32Z" id="a16X4MgLC9"></path><path d="M120.01 512.19L133.2 525.88L144.46 538.41L120.01 538.41L120.01 512.19Z" id="ezPBFCh1j"></path></defs><g><g><g><use xlink:href="#b2ElkrwgVX" opacity="1" fill="#ddd9d9" fill-opacity="1"></use></g><g><use xlink:href="#dNIYyfdKM" opacity="1" fill="#d5d4d3" fill-opacity="1"></use></g><g><use xlink:href="#bSOU2EeNW" opacity="1" fill="#c8c8c8" fill-opacity="1"></use></g><g><use xlink:href="#b4z7K4qmRZ" opacity="1" fill="#d2cece" fill-opacity="1"></use></g><g><use xlink:href="#b1BxIZHxEZ" opacity="1" fill="#bdbdbd" fill-opacity="1"></use></g><g><use xlink:href="#a1ESD0jYWz" opacity="1" fill="#bababa" fill-opacity="1"></use></g><g><use xlink:href="#c1srXwMJKN" opacity="1" fill="#bcb9b9" fill-opacity="1"></use></g><g><use xlink:href="#d12FWEkPc3" opacity="1" fill="#c5c0c0" fill-opacity="1"></use></g><g><use xlink:href="#c1lhPwS9Po" opacity="1" fill="#c5c0c0" fill-opacity="1"></use></g><g><use xlink:href="#b3kIwvM5Pl" opacity="1" fill="#969292" fill-opacity="1"></use></g><g><use xlink:href="#a1NA1sO9g" opacity="1" fill="#969292" fill-opacity="1"></use></g><g><use xlink:href="#h1QpDODi2" opacity="1" fill="#969292" fill-opacity="1"></use></g><g><use xlink:href="#as0NMuWSq" opacity="1" fill="#969292" fill-opacity="1"></use></g><g><use xlink:href="#bfyc7BZGz" opacity="1" fill="#c5bfbf" fill-opacity="1"></use></g><g><use xlink:href="#aiTnuHZEP" opacity="1" fill="#c5bfbf" fill-opacity="1"></use></g><g><use xlink:href="#dZuheWviF" opacity="1" fill="#c5bfbf" fill-opacity="1"></use></g><g><use xlink:href="#b119JGJr2l" opacity="1" fill="#9f9f9f" fill-opacity="1"></use></g><g><use xlink:href="#bhRxis0iR" opacity="1" fill="#9f9f9f" fill-opacity="1"></use></g><g><use xlink:href="#c9l4BmEXO3" opacity="1" fill="#9f9f9f" fill-opacity="1"></use></g><g><use xlink:href="#casZ5CTO4i" opacity="1" fill="#f6f6f6" fill-opacity="1"></use></g><g><use xlink:href="#eMdpdeRhk" opacity="1" fill="#f6f6f6" fill-opacity="1"></use></g><g><use xlink:href="#bZeR96xD8" opacity="1" fill="#c8bbbb" fill-opacity="1"></use></g><g><use xlink:href="#b4iyb3gcFP" opacity="1" fill="#e0dcdc" fill-opacity="1"></use></g><g><use xlink:href="#a127X5lAsS" opacity="1" fill="#dedede" fill-opacity="1"></use></g><g><use xlink:href="#b12xIVsIzy" opacity="1" fill="#dedede" fill-opacity="1"></use></g><g><use xlink:href="#a3aLugsL8L" opacity="1" fill="#b1afaf" fill-opacity="1"></use></g><g><use xlink:href="#bcBrWnPsn" opacity="1" fill="#b1afaf" fill-opacity="1"></use></g><g><use xlink:href="#c3avQptAKL" opacity="1" fill="#625c5c" fill-opacity="1"></use></g><g><use xlink:href="#bclPinV16" opacity="1" fill="#595757" fill-opacity="1"></use></g><g><use xlink:href="#c2ikxxVmmM" opacity="1" fill="#656161" fill-opacity="1"></use></g><g><use xlink:href="#c8MLFqM6x4" opacity="1" fill="#625c5c" fill-opacity="1"></use></g><g><use xlink:href="#aAM1umBkx" opacity="1" fill="#625c5c" fill-opacity="1"></use></g><g><use xlink:href="#b4t83InUZ" opacity="1" fill="#625c5c" fill-opacity="1"></use></g><g><use xlink:href="#a1qpy5ALK9" opacity="1" fill="#656161" fill-opacity="1"></use></g><g><use xlink:href="#dtPkArHxv" opacity="1" fill="#656161" fill-opacity="1"></use></g><g><use xlink:href="#bwJ5helPD" opacity="1" fill="#656161" fill-opacity="1"></use></g><g><use xlink:href="#a2er5FoCh4" opacity="1" fill="#fffcfc" fill-opacity="1"></use></g><g><use xlink:href="#g5jG9IKB0G" opacity="1" fill="#fffcfc" fill-opacity="1"></use></g><g><use xlink:href="#awHc7Htst" opacity="1" fill="#fffcfc" fill-opacity="1"></use></g><g><use xlink:href="#b4wCfXnVu" opacity="1" fill="#fffcfc" fill-opacity="1"></use></g><g><use xlink:href="#b2SJqK4VTq" opacity="1" fill="#fffcfc" fill-opacity="1"></use></g><g><use xlink:href="#c1SHc2SYx6" opacity="1" fill="#fffcfc" fill-opacity="1"></use></g><g><use xlink:href="#a3yz5yEgfU" opacity="1" fill="#d1cbcb" fill-opacity="1"></use></g><g><use xlink:href="#a2AZEdKTKH" opacity="1" fill="#d1cbcb" fill-opacity="1"></use></g><g><use xlink:href="#b3bu6m1Swa" opacity="1" fill="#d1cbcb" fill-opacity="1"></use></g><g><use xlink:href="#h1BGcwwvJc" opacity="1" fill="#d1cbcb" fill-opacity="1"></use></g><g><use xlink:href="#a16X4MgLC9" opacity="1" fill="#d1cbcb" fill-opacity="1"></use></g><g><use xlink:href="#ezPBFCh1j" opacity="1" fill="#d1cbcb" fill-opacity="1"></use></g></g></g></svg>